<?xml version="1.0" ?><svg id="Layer_1" style="enable-background:new 0 0 24 24;" version="1.1" viewBox="0 0 24 24" xml:space="preserve" xmlns="http://www.w3.org/2000/svg" xmlns:xlink="http://www.w3.org/1999/xlink"><style type="text/css">
	.st0{fill:none;stroke:#000000;stroke-width:1.6724;stroke-linecap:round;stroke-linejoin:round;stroke-miterlimit:10;}
	.st1{fill:none;stroke:#000000;stroke-width:1.5;stroke-linecap:round;stroke-linejoin:round;stroke-miterlimit:10;}
	.st2{fill:none;stroke:#000000;stroke-width:1.5;stroke-linejoin:round;stroke-miterlimit:10;}
</style><g><path class="st1" d="M9.3,21.3l0.5,0.3c0.4,0.2,0.9,0.3,1.4,0.3h6.9c1.8,0,3.3-1.3,3.6-3l1.5-7.8c0.3-1.4-0.8-2.6-2.2-2.6h-4   l1.7-4.7c0.1-0.2,0.1-0.4,0.1-0.6c0-1-0.8-1.9-1.9-1.9c-0.6,0-1.1,0.3-1.5,0.7L9.5,9.8H9.3"/><g><path class="st1" d="M8.2,22.7H1.8c-0.6,0-1-0.4-1-1V9.2c0-0.6,0.4-1,1-1h6.5c0.6,0,1,0.4,1,1v12.6C9.2,22.3,8.8,22.7,8.2,22.7z"/></g></g></svg>